<svg width="178" height="15" viewBox="0 0 178 15" fill="none" xmlns="http://www.w3.org/2000/svg">
<path d="M0.54 14V1.06H9.32C10.32 1.06 11.1867 1.2 11.92 1.48C12.6667 1.74667 13.2467 2.17333 13.66 2.76C14.0733 3.33333 14.28 4.07333 14.28 4.98C14.28 5.59333 14.1733 6.11333 13.96 6.54C13.7467 6.96667 13.4467 7.31333 13.06 7.58C12.6867 7.84667 12.2533 8.05333 11.76 8.2C11.2667 8.33333 10.74 8.42 10.18 8.46L9.9 8.3C10.8333 8.31333 11.6 8.39333 12.2 8.54C12.8 8.67333 13.2467 8.92667 13.54 9.3C13.8467 9.66 14 10.2 14 10.92V14H11.34V11.1C11.34 10.6067 11.2533 10.2267 11.08 9.96C10.9067 9.68 10.5933 9.48667 10.14 9.38C9.7 9.27333 9.06 9.22 8.22 9.22H3.2V14H0.54ZM3.2 7.14H9.32C10.0667 7.14 10.6333 6.96 11.02 6.6C11.42 6.24 11.62 5.75333 11.62 5.14C11.62 4.55333 11.42 4.10667 11.02 3.8C10.6333 3.49333 10.0667 3.34 9.32 3.34H3.2V7.14ZM22.5248 14.24C21.2715 14.24 20.1648 14.04 19.2048 13.64C18.2582 13.24 17.5182 12.66 16.9848 11.9C16.4515 11.1267 16.1848 10.18 16.1848 9.06C16.1848 7.94 16.4515 6.99333 16.9848 6.22C17.5182 5.43333 18.2582 4.84 19.2048 4.44C20.1648 4.04 21.2715 3.84 22.5248 3.84C23.7782 3.84 24.8715 4.04 25.8048 4.44C26.7515 4.84 27.4915 5.43333 28.0248 6.22C28.5582 6.99333 28.8248 7.94 28.8248 9.06C28.8248 10.18 28.5582 11.1267 28.0248 11.9C27.4915 12.66 26.7515 13.24 25.8048 13.64C24.8715 14.04 23.7782 14.24 22.5248 14.24ZM22.5248 12.24C23.2182 12.24 23.8382 12.12 24.3848 11.88C24.9448 11.6267 25.3848 11.2667 25.7048 10.8C26.0248 10.32 26.1848 9.74 26.1848 9.06C26.1848 8.38 26.0248 7.8 25.7048 7.32C25.3848 6.82667 24.9515 6.45333 24.4048 6.2C23.8582 5.94667 23.2315 5.82 22.5248 5.82C21.8315 5.82 21.2048 5.94667 20.6448 6.2C20.0848 6.45333 19.6382 6.82 19.3048 7.3C18.9848 7.78 18.8248 8.36667 18.8248 9.06C18.8248 9.74 18.9848 10.32 19.3048 10.8C19.6248 11.2667 20.0648 11.6267 20.6248 11.88C21.1848 12.12 21.8182 12.24 22.5248 12.24ZM30.9469 0.0599995H33.5469V14H30.9469V0.0599995ZM36.3766 0.0599995H38.9766V14H36.3766V0.0599995ZM50.6663 10.7H53.1863C53.0796 11.38 52.7929 11.9867 52.3263 12.52C51.8729 13.0533 51.2529 13.4733 50.4663 13.78C49.6796 14.0867 48.7196 14.24 47.5863 14.24C46.3196 14.24 45.1996 14.04 44.2263 13.64C43.2529 13.2267 42.4929 12.6333 41.9463 11.86C41.3996 11.0867 41.1263 10.1533 41.1263 9.06C41.1263 7.96667 41.3929 7.03333 41.9263 6.26C42.4596 5.47333 43.1996 4.87333 44.1463 4.46C45.1063 4.04667 46.2263 3.84 47.5063 3.84C48.8129 3.84 49.8996 4.04667 50.7663 4.46C51.6329 4.87333 52.2729 5.5 52.6863 6.34C53.1129 7.16667 53.2929 8.22667 53.2263 9.52H43.7463C43.8129 10.0267 43.9996 10.4867 44.3063 10.9C44.6263 11.3133 45.0529 11.64 45.5863 11.88C46.1329 12.12 46.7796 12.24 47.5263 12.24C48.3529 12.24 49.0396 12.1 49.5863 11.82C50.1463 11.5267 50.5063 11.1533 50.6663 10.7ZM47.3863 5.82C46.4263 5.82 45.6463 6.03333 45.0463 6.46C44.4463 6.87333 44.0596 7.38667 43.8863 8H50.6463C50.5796 7.33333 50.2596 6.80667 49.6863 6.42C49.1263 6.02 48.3596 5.82 47.3863 5.82ZM55.1609 4.06H57.7609V14H55.1609V4.06ZM61.5809 6.2C60.8343 6.2 60.1876 6.34667 59.6409 6.64C59.0943 6.92 58.6543 7.26667 58.3209 7.68C57.9876 8.09333 57.7543 8.49333 57.6209 8.88L57.6009 7.78C57.6143 7.62 57.6676 7.38667 57.7609 7.08C57.8543 6.76 57.9943 6.42 58.1809 6.06C58.3676 5.68667 58.6143 5.33333 58.9209 5C59.2276 4.65333 59.6009 4.37333 60.0409 4.16C60.4809 3.94667 60.9943 3.84 61.5809 3.84V6.2ZM67.6125 10.7H70.0125C70.1592 11.1533 70.4592 11.5267 70.9125 11.82C71.3792 12.1 71.9858 12.24 72.7325 12.24C73.2392 12.24 73.6325 12.1933 73.9125 12.1C74.1925 12.0067 74.3858 11.8733 74.4925 11.7C74.5992 11.5133 74.6525 11.3067 74.6525 11.08C74.6525 10.8 74.5658 10.5867 74.3925 10.44C74.2192 10.28 73.9525 10.1533 73.5925 10.06C73.2325 9.96667 72.7725 9.88 72.2125 9.8C71.6525 9.70667 71.1125 9.59333 70.5925 9.46C70.0725 9.32667 69.6125 9.15333 69.2125 8.94C68.8125 8.71333 68.4925 8.43333 68.2525 8.1C68.0258 7.75333 67.9125 7.33333 67.9125 6.84C67.9125 6.36 68.0258 5.93333 68.2525 5.56C68.4925 5.18667 68.8192 4.87333 69.2325 4.62C69.6592 4.36667 70.1525 4.17333 70.7125 4.04C71.2858 3.90667 71.8992 3.84 72.5525 3.84C73.5392 3.84 74.3592 3.98667 75.0125 4.28C75.6658 4.56 76.1525 4.96 76.4725 5.48C76.8058 5.98667 76.9725 6.57333 76.9725 7.24H74.6725C74.5658 6.74667 74.3525 6.39333 74.0325 6.18C73.7125 5.95333 73.2192 5.84 72.5525 5.84C71.8992 5.84 71.4058 5.94 71.0725 6.14C70.7392 6.34 70.5725 6.61333 70.5725 6.96C70.5725 7.24 70.6725 7.46 70.8725 7.62C71.0858 7.76667 71.3925 7.88667 71.7925 7.98C72.2058 8.07333 72.7192 8.17333 73.3325 8.28C73.8525 8.38667 74.3458 8.50667 74.8125 8.64C75.2925 8.77333 75.7192 8.94667 76.0925 9.16C76.4658 9.36 76.7592 9.63333 76.9725 9.98C77.1992 10.3133 77.3125 10.74 77.3125 11.26C77.3125 11.9 77.1258 12.44 76.7525 12.88C76.3925 13.32 75.8725 13.66 75.1925 13.9C74.5125 14.1267 73.6992 14.24 72.7525 14.24C71.9125 14.24 71.1858 14.1533 70.5725 13.98C69.9725 13.7933 69.4725 13.56 69.0725 13.28C68.6725 12.9867 68.3592 12.68 68.1325 12.36C67.9192 12.0267 67.7725 11.7133 67.6925 11.42C67.6125 11.1267 67.5858 10.8867 67.6125 10.7ZM79.4816 0.0599995H82.0816V14H79.4816V0.0599995ZM90.4616 4.06L84.5416 9.28L84.6016 7.68L90.9216 14H87.6216L82.1416 8.42L86.9216 4.06H90.4616ZM96.5634 14.22C95.5768 14.22 94.6768 14.0067 93.8634 13.58C93.0634 13.14 92.4234 12.5333 91.9434 11.76C91.4768 10.9733 91.2434 10.0667 91.2434 9.04C91.2434 7.98667 91.4834 7.07333 91.9634 6.3C92.4434 5.52667 93.0901 4.92667 93.9034 4.5C94.7301 4.06 95.6634 3.84 96.7034 3.84C97.8501 3.84 98.7701 4.07333 99.4634 4.54C100.17 4.99333 100.683 5.61333 101.003 6.4C101.323 7.18667 101.483 8.06667 101.483 9.04C101.483 9.62667 101.39 10.2267 101.203 10.84C101.017 11.44 100.73 12 100.343 12.52C99.9568 13.0267 99.4501 13.44 98.8234 13.76C98.1968 14.0667 97.4434 14.22 96.5634 14.22ZM97.4034 12.22C98.1901 12.22 98.8701 12.0867 99.4434 11.82C100.017 11.5533 100.457 11.18 100.763 10.7C101.07 10.22 101.223 9.66667 101.223 9.04C101.223 8.36 101.063 7.78667 100.743 7.32C100.437 6.84 99.9968 6.48 99.4234 6.24C98.8634 5.98667 98.1901 5.86 97.4034 5.86C96.2968 5.86 95.4368 6.15333 94.8234 6.74C94.2101 7.31333 93.9034 8.08 93.9034 9.04C93.9034 9.68 94.0501 10.24 94.3434 10.72C94.6368 11.1867 95.0434 11.5533 95.5634 11.82C96.0968 12.0867 96.7101 12.22 97.4034 12.22ZM101.223 4.06H103.823V14H101.403C101.403 14 101.383 13.8733 101.343 13.62C101.317 13.3533 101.29 13.02 101.263 12.62C101.237 12.22 101.223 11.8267 101.223 11.44V4.06ZM105.477 4.06H113.197V6.08H105.477V4.06ZM108.037 1.34H110.637V14H108.037V1.34ZM123.772 10.7H126.292C126.185 11.38 125.898 11.9867 125.432 12.52C124.978 13.0533 124.358 13.4733 123.572 13.78C122.785 14.0867 121.825 14.24 120.692 14.24C119.425 14.24 118.305 14.04 117.332 13.64C116.358 13.2267 115.598 12.6333 115.052 11.86C114.505 11.0867 114.232 10.1533 114.232 9.06C114.232 7.96667 114.498 7.03333 115.032 6.26C115.565 5.47333 116.305 4.87333 117.252 4.46C118.212 4.04667 119.332 3.84 120.612 3.84C121.918 3.84 123.005 4.04667 123.872 4.46C124.738 4.87333 125.378 5.5 125.792 6.34C126.218 7.16667 126.398 8.22667 126.332 9.52H116.852C116.918 10.0267 117.105 10.4867 117.412 10.9C117.732 11.3133 118.158 11.64 118.692 11.88C119.238 12.12 119.885 12.24 120.632 12.24C121.458 12.24 122.145 12.1 122.692 11.82C123.252 11.5267 123.612 11.1533 123.772 10.7ZM120.492 5.82C119.532 5.82 118.752 6.03333 118.152 6.46C117.552 6.87333 117.165 7.38667 116.992 8H123.752C123.685 7.33333 123.365 6.80667 122.792 6.42C122.232 6.02 121.465 5.82 120.492 5.82ZM127.866 10.7H130.266C130.413 11.1533 130.713 11.5267 131.166 11.82C131.633 12.1 132.24 12.24 132.986 12.24C133.493 12.24 133.886 12.1933 134.166 12.1C134.446 12.0067 134.64 11.8733 134.746 11.7C134.853 11.5133 134.906 11.3067 134.906 11.08C134.906 10.8 134.82 10.5867 134.646 10.44C134.473 10.28 134.206 10.1533 133.846 10.06C133.486 9.96667 133.026 9.88 132.466 9.8C131.906 9.70667 131.366 9.59333 130.846 9.46C130.326 9.32667 129.866 9.15333 129.466 8.94C129.066 8.71333 128.746 8.43333 128.506 8.1C128.28 7.75333 128.166 7.33333 128.166 6.84C128.166 6.36 128.28 5.93333 128.506 5.56C128.746 5.18667 129.073 4.87333 129.486 4.62C129.913 4.36667 130.406 4.17333 130.966 4.04C131.54 3.90667 132.153 3.84 132.806 3.84C133.793 3.84 134.613 3.98667 135.266 4.28C135.92 4.56 136.406 4.96 136.726 5.48C137.06 5.98667 137.226 6.57333 137.226 7.24H134.926C134.82 6.74667 134.606 6.39333 134.286 6.18C133.966 5.95333 133.473 5.84 132.806 5.84C132.153 5.84 131.66 5.94 131.326 6.14C130.993 6.34 130.826 6.61333 130.826 6.96C130.826 7.24 130.926 7.46 131.126 7.62C131.34 7.76667 131.646 7.88667 132.046 7.98C132.46 8.07333 132.973 8.17333 133.586 8.28C134.106 8.38667 134.6 8.50667 135.066 8.64C135.546 8.77333 135.973 8.94667 136.346 9.16C136.72 9.36 137.013 9.63333 137.226 9.98C137.453 10.3133 137.566 10.74 137.566 11.26C137.566 11.9 137.38 12.44 137.006 12.88C136.646 13.32 136.126 13.66 135.446 13.9C134.766 14.1267 133.953 14.24 133.006 14.24C132.166 14.24 131.44 14.1533 130.826 13.98C130.226 13.7933 129.726 13.56 129.326 13.28C128.926 12.9867 128.613 12.68 128.386 12.36C128.173 12.0267 128.026 11.7133 127.946 11.42C127.866 11.1267 127.84 10.8867 127.866 10.7Z" fill="black"/>
<path d="M170.062 1.5345C170.384 0.663886 171.616 0.663887 171.938 1.53451L173.001 4.40803C173.102 4.68175 173.318 4.89756 173.592 4.99885L176.465 6.06215C177.336 6.38431 177.336 7.61569 176.465 7.93785L173.592 9.00115C173.318 9.10244 173.102 9.31825 173.001 9.59197L171.938 12.4655C171.616 13.3361 170.384 13.3361 170.062 12.4655L168.999 9.59197C168.898 9.31825 168.682 9.10244 168.408 9.00115L165.535 7.93785C164.664 7.61569 164.664 6.38431 165.535 6.06215L168.408 4.99885C168.682 4.89756 168.898 4.68175 168.999 4.40803L170.062 1.5345Z" fill="black"/>
</svg>
